PathFileType	4	(X/Y/Z)	T1_P1_Vision_Movement_3_0-659.trc
DataRate	CameraRate	NumFrames	NumMarkers	Units	OrigDataRate	OrigDataStartFrame	OrigNumFrames
60	60	6	27	m	60	247	659
Frame#	Time	RHip			RKnee			RAnkle			RBigToe			RSmallToe			RHeel			LHip			LKnee			LAnkle			LBigToe			LSmallToe			LHeel			Neck			Head			Nose			RShoulder			RElbow			RWrist			RThumb			RIndex			RPinky			LShoulder			LElbow			LWrist			LThumb			LIndex			LPinky		
		X1	Y1	Z1	X2	Y2	Z2	X3	Y3	Z3	X4	Y4	Z4	X5	Y5	Z5	X6	Y6	Z6	X7	Y7	Z7	X8	Y8	Z8	X9	Y9	Z9	X10	Y10	Z10	X11	Y11	Z11	X12	Y12	Z12	X13	Y13	Z13	X14	Y14	Z14	X15	Y15	Z15	X16	Y16	Z16	X17	Y17	Z17	X18	Y18	Z18	X19	Y19	Z19	X20	Y20	Z20	X21	Y21	Z21	X22	Y22	Z22	X23	Y23	Z23	X24	Y24	Z24	X25	Y25	Z25	X26	Y26	Z26	X27	Y27	Z27
248	4.133333333333334	-109.53113155732154	3920.7032398971714	-626.3243622940533	243.7878588460096	4059.3110207191407	-647.6964755385885	600.8655780341318	4266.710676400395	-692.3459194133211	684.2095066564867	4171.483227316127	-643.2456540868941	679.8778404758636	4160.597660968984	-700.0627521679583	638.8507242792354	4315.084672703077	-698.7189818097937	-136.52413053629164	4052.904003123861	-484.76100500751437	210.44654267618486	4194.1830230107325	-497.13565143686367	549.4749726281502	4330.662924374909	-521.6253707257935	631.431683159393	4214.952820142759	-400.96079585131366	609.6996432046759	4278.359907824912	-378.9003683905886	608.4704595081258	4375.579060501193	-545.9298380496173	-710.5903130996682	3818.2193560539868	-579.0431570066053	-942.8299495153993	3649.762496896877	-483.29186931270164	-803.8400511710888	3661.9035887795108	-454.58788852186274	-598.8736239426188	3753.488793166015	-704.8186576896759	-338.0226388183643	3637.645757921321	-698.6917972544958	-539.7630228763851	3534.9473536102078	-549.373171909248	-604.316928353898	3473.366955693684	-456.44078562789855	-616.8534875246356	3450.3295368154263	-435.2782735642473	-557.7547056769689	3468.0717899044025	-436.9594154001191	-644.3897446648399	3940.325667252775	-461.6410119612279	-408.50631481563016	4077.543860043771	-404.95116874034795	-154.5282002741943	4100.2247902064455	-348.9081162491866	-37.22227422486547	4083.344342449346	-348.0000609063642	3.633619011537984	4132.324541076656	-342.54662937396137	-17.474274229011854	4129.041156511688	-312.1539278281548
249	4.15	-109.7761285322697	3920.8804741111176	-626.1476388273572	239.93375549844822	4089.725989457498	-655.6288520635163	606.8669078531908	4270.892448976093	-694.5476773277211	690.5507127309596	4206.361704222116	-654.4909235923424	674.4427426863755	4140.545804232312	-687.0006527466924	638.8132984827636	4314.662726729101	-698.4518133821017	-136.63489200505762	4052.765036744204	-484.5842589151612	210.65859713196826	4194.596263679231	-497.04481737087366	555.6167148374122	4334.3947023908695	-520.8927571521153	636.9097839366068	4214.723877169871	-400.3573332110186	616.3035844402298	4282.9680069200385	-380.78870738055514	608.7571346416453	4376.341107836385	-545.913176197525	-710.6649012240742	3818.4048984559354	-579.0682065198056	-942.8363843220363	3649.7726605970956	-483.2497815861043	-803.9119553985357	3662.131143460835	-454.70365938151093	-598.9728654344656	3753.6692366386146	-704.9411269345655	-338.0003663057828	3637.9855172439147	-698.70188014231	-535.3763459173208	3536.3557473871488	-549.2777852186127	-605.4325682033309	3474.9978093006807	-458.2837116963388	-619.4919938003061	3451.1026952389843	-436.8864408083736	-562.4854835654196	3469.271104547111	-442.439230599766	-644.3810454293625	3940.4496512333762	-461.6664099973309	-403.2616894559422	4078.438616288973	-404.77960870464875	-154.38648523570217	4100.270989633011	-348.9026832013341	-32.45718981517336	4085.0068156335483	-347.0458173137746	1.6018413896688426	4109.203406887864	-322.03392857205995	-17.437039190340915	4128.753439581281	-312.1779238098954
250	4.166666666666667	-114.81354015008827	3940.2154895616773	-641.5503253887981	239.68984215337156	4089.1991841080667	-655.6706881572339	600.6476952345075	4266.467870059564	-692.1777137370095	683.2753919739516	4201.153042151522	-651.7991683298335	673.2126254630864	4158.19608425748	-700.9648718003837	638.9158892792241	4314.927152715479	-698.8277906561128	-136.65305884621128	4052.840773175882	-484.7179139744841	210.56971842021548	4194.370793323746	-497.14604516197284	555.708875478499	4334.486756912473	-521.017181324694	631.6970864334838	4215.391484047707	-401.10180599514223	612.0009375532725	4250.877918738244	-374.9193076029114	609.4286052788793	4377.241786956765	-546.2635496557367	-710.6599314065496	3818.2619571935347	-579.1242879543335	-942.9378118548801	3649.836833693828	-483.2967144907379	-803.9229793528513	3662.2413523441764	-454.7591324197652	-599.0548342467595	3753.540608315397	-704.965703321758	-342.950994946847	3636.5115610306902	-699.2331531217731	-535.2498707194089	3536.407289325216	-549.5867406105382	-606.7513853398175	3488.238031330258	-469.8589736072855	-615.2194057119117	3452.0780016521007	-436.01010568285824	-562.3160036064847	3469.098431132661	-441.7248363238129	-644.1598684587336	3940.4805854863066	-467.29924916991666	-408.6000639867224	4077.4158640700375	-404.9190059072257	-159.56676432853374	4099.838750140427	-349.09830666528495	-37.595185457686156	4083.7488179611246	-347.905184574748	-2.4700379441374563	4130.36232368887	-343.1983059930393	-17.821433730058008	4130.069606634861	-312.9194509217322
251	4.183333333333334	-109.81564488186953	3920.542186323473	-626.1342242931914	237.90053418060413	4058.5400684986494	-647.8980700918332	600.4536205955279	4266.502541968947	-692.0900219878973	683.1310223257547	4201.245693724467	-651.9686057758183	672.9239410113001	4157.617230684191	-700.8132164568954	638.5231763694784	4315.107924783711	-698.6361253752332	-136.69656811393548	4052.53243197808	-484.58264875270464	208.94285898645418	4163.911516822842	-490.8568848941193	554.281880631198	4329.526856306153	-520.6386417127159	631.4946735526206	4215.407571373081	-401.0654496808458	604.7012392551367	4245.604173688521	-372.6273995050739	608.4217908414496	4375.768814195244	-545.7147128500645	-710.6345590092952	3818.187919133914	-579.0972127772986	-942.9173964362371	3649.8215044012436	-483.2523922583994	-798.9967053227118	3638.2463418989823	-449.1434769582453	-598.9955990662365	3753.3431906413452	-704.945652409858	-342.88613579027447	3636.6557962573975	-699.1750633856643	-530.3364964549435	3539.4484878418266	-550.8576561438398	-603.1787967278349	3490.67665401945	-471.1383992136802	-617.1051440219275	3452.949496259341	-437.35393692830814	-559.9600106109501	3485.2008379564595	-455.65188265359853	-644.3846807514536	3940.13128318679	-461.56938945589246	-413.3227374765668	4074.094161111817	-403.75617527547536	-154.71431420660699	4100.617325538222	-348.9333463919175	-32.40056961617473	4086.2473240693084	-347.38397101706255	2.3674075862476367	4112.592965527113	-329.06891200855966	-23.166843374304808	4125.974622060018	-311.2393057741594
252	4.2	-114.71935943767926	3940.9780124193403	-641.9144657907044	239.59865323919018	4089.306618782664	-655.6923867569765	600.6506334641539	4266.5775620650375	-692.2027293988219	683.3172881581244	4201.111943413076	-651.8835356448814	673.344138452632	4158.772314905305	-701.140338204543	638.8073752255392	4315.002502601647	-698.7184994281184	-136.63991861988637	4053.174786055713	-484.872744406851	210.31261660442578	4194.285880299598	-497.080780942672	553.9364624131168	4330.687171540315	-515.1235102658496	631.5547285403686	4215.427047789115	-401.0707707831706	609.1339198947902	4277.584256644851	-378.4024434055785	608.7121452339059	4376.194315713159	-545.4604956390061	-715.7552661988093	3815.286144269926	-578.1755452775327	-947.872327272237	3648.7854069554196	-483.58023517261387	-803.781368190397	3661.663746117612	-454.51115247247213	-598.9705921488896	3753.4763549126424	-704.8981725279898	-343.0249554296245	3636.723447202627	-699.2658180090655	-539.6661425503636	3535.130569841782	-550.1505552456345	-617.7669544281872	3515.4465112791904	-497.33225939573134	-618.6427479239786	3468.216739018917	-451.69012451768515	-557.5030887101597	3464.3448954747823	-452.34481436001516	-644.4985793208656	3940.1961208369735	-461.6757355701205	-413.298451485266	4074.4050942427334	-403.797544888969	-159.41914398420263	4100.547951534726	-349.46926603847106	-32.28208124675348	4088.103398192057	-347.99266726950276	2.5088691659896263	4131.279955234783	-336.2369403879049	-28.06871564448833	4126.006726849111	-311.744241083646
253	4.216666666666667	-108.93194147540517	3891.1667365744433	-618.4956402353849	238.18311281118395	4058.7415707763853	-647.893286459358	599.1564083565667	4263.958334092917	-684.3927428194779	688.9187187321593	4204.089678299409	-650.8205124466075	674.4595770340366	4138.431476182123	-683.6652935919194	645.4330257644964	4317.962885998136	-697.7387829473518	-136.60815703620804	4052.6699331246714	-484.63438188259585	210.512440943988	4194.079679917075	-496.903257054057	562.9564176953987	4338.114074928302	-522.5135535665863	631.654417020889	4215.581864016075	-401.10467923298177	611.5136464317412	4250.050760645627	-374.7259065917586	614.9600708897034	4379.406601152592	-547.3697560479153	-715.214576686095	3813.9313634443956	-583.4469942723867	-942.9574982831489	3649.8140960954784	-483.3172731797372	-798.9743288586368	3638.210328435257	-449.20452014343584	-598.8856119558257	3753.496467018825	-704.9418147327078	-347.8782890022716	3633.6625310662193	-697.85652550181	-534.8081833469554	3534.5656842166	-555.1226895698786	-611.9770452807447	3502.7958450026617	-485.31886650597755	-614.5789015485539	3471.868885499542	-458.3170450803629	-553.8696568305056	3464.692169385347	-453.21510463821716	-640.1025156618495	3912.494803021916	-456.0608053331504	-408.55192143608633	4077.5752849501096	-404.94144128581763	-153.50123193545727	4103.607611278898	-349.12785077271536	-25.362136042665504	4093.062186056625	-349.9173104766804	9.236490153004285	4138.413131806863	-344.8539837683749	-22.50825151397925	4130.354156118579	-313.5074728670974
